HIERARCHY
ROOT Hips
{
	OFFSET 0.000000 0.000000 0.000000
	CHANNELS 6 Xposition Yposition Zposition Zrotation Yrotation Xrotation 
	JOINT LHipJoint
	{
		OFFSET 0.000000 0.000000 0.000000
		CHANNELS 3 Zrotation Yrotation Xrotation
		JOINT LeftUpLeg
		{
			OFFSET 1.363060 -1.794630 0.839290
			CHANNELS 3 Zrotation Yrotation Xrotation
			JOINT LeftLeg
			{
				OFFSET 2.448110 -6.726130 0.000000
				CHANNELS 3 Zrotation Yrotation Xrotation
				JOINT LeftFoot
				{
					OFFSET 2.562200 -7.039590 0.000000
					CHANNELS 3 Zrotation Yrotation Xrotation
					JOINT LeftToeBase
					{
						OFFSET 0.157640 -0.433110 2.322550
						CHANNELS 3 Zrotation Yrotation Xrotation
						End Site
						{
							OFFSET 0.000000 0.000000 0.000000
						}
					}
				}
			}
		}
	}
	JOINT RHipJoint
	{
		OFFSET 0.000000 0.000000 0.000000
		CHANNELS 3 Zrotation Yrotation Xrotation
		JOINT RightUpLeg
		{
			OFFSET -1.305520 -1.794630 0.839290
			CHANNELS 3 Zrotation Yrotation Xrotation
			JOINT RightLeg
			{
				OFFSET -2.542530 -6.985550 0.000000
				CHANNELS 3 Zrotation Yrotation Xrotation
				JOINT RightFoot
				{
					OFFSET -2.568260 -7.056230 0.000000
					CHANNELS 3 Zrotation Yrotation Xrotation
					JOINT RightToeBase
					{
						OFFSET -0.164730 -0.452590 2.363150
						CHANNELS 3 Zrotation Yrotation Xrotation
						End Site
						{
							OFFSET 0.000000 0.000000 0.000000
						}
					}
				}
			}
		}
	}
	JOINT LowerBack
	{
		OFFSET 0.000000 0.000000 0.000000
		CHANNELS 3 Zrotation Yrotation Xrotation
		JOINT Spine
		{
			OFFSET 0.028270 2.035590 -0.193380
			CHANNELS 3 Zrotation Yrotation Xrotation
			JOINT Spine1
			{
				OFFSET 0.056720 2.048850 -0.042750
				CHANNELS 3 Zrotation Yrotation Xrotation
				JOINT Neck
				{
					OFFSET 0.000000 0.000000 0.000000
					CHANNELS 3 Zrotation Yrotation Xrotation
					JOINT Neck1
					{
						OFFSET -0.054170 1.746240 0.172020
						CHANNELS 3 Zrotation Yrotation Xrotation
						JOINT Head
						{
							OFFSET 0.104070 1.761360 -0.123970
							CHANNELS 3 Zrotation Yrotation Xrotation
							End Site
							{
								OFFSET 0.000000 0.000000 0.000000
							}
						}
					}
				}
				JOINT LeftShoulder
				{
					OFFSET 0.000000 0.000000 0.000000
					CHANNELS 3 Zrotation Yrotation Xrotation
					JOINT LeftArm
					{
						OFFSET 3.362410 1.200890 -0.311210
						CHANNELS 3 Zrotation Yrotation Xrotation
						JOINT LeftForeArm
						{
							OFFSET 4.983000 -0.000000 -0.000000
							CHANNELS 3 Zrotation Yrotation Xrotation
							JOINT LeftHand
							{
								OFFSET 3.483560 -0.000000 -0.000000
								CHANNELS 3 Zrotation Yrotation Xrotation
								JOINT LeftFingerBase
								{
									OFFSET 0.000000 0.000000 0.000000
									CHANNELS 3 Zrotation Yrotation Xrotation
									JOINT LeftHandIndex1
									{
										OFFSET 0.715260 -0.000000 -0.000000
										CHANNELS 3 Zrotation Yrotation Xrotation
										End Site
										{
											OFFSET 0.000000 0.000000 0.000000
										}
									}
								}
								JOINT LThumb
								{
									OFFSET 0.000000 0.000000 0.000000
									CHANNELS 3 Zrotation Yrotation Xrotation
									End Site
									{
										OFFSET 0.000000 0.000000 0.000000
									}
								}
							}
						}
					}
				}
				JOINT RightShoulder
				{
					OFFSET 0.000000 0.000000 0.000000
					CHANNELS 3 Zrotation Yrotation Xrotation
					JOINT RightArm
					{
						OFFSET -3.136600 1.374050 -0.404650
						CHANNELS 3 Zrotation Yrotation Xrotation
						JOINT RightForeArm
						{
							OFFSET -5.241900 -0.000000 -0.000000
							CHANNELS 3 Zrotation Yrotation Xrotation
							JOINT RightHand
							{
								OFFSET -3.444170 -0.000000 -0.000000
								CHANNELS 3 Zrotation Yrotation Xrotation
								JOINT RightFingerBase
								{
									OFFSET 0.000000 0.000000 0.000000
									CHANNELS 3 Zrotation Yrotation Xrotation
									JOINT RightHandIndex1
									{
										OFFSET -0.622530 -0.000000 -0.000000
										CHANNELS 3 Zrotation Yrotation Xrotation
										End Site
										{
											OFFSET 0.000000 0.000000 0.000000
										}
									}
								}
								JOINT RThumb
								{
									OFFSET 0.000000 0.000000 0.000000
									CHANNELS 3 Zrotation Yrotation Xrotation
									End Site
									{
										OFFSET 0.000000 0.000000 0.000000
									}
								}
							}
						}
					}
				}
			}
		}
	}
}
MOTION
Frames: 10
Frame Time: 0.008333
1.487736 17.909252 13.130914 178.981548 -5.350813 -171.355549 -2.656438 1.646689 1.822332 -19.355745 -5.214332 -16.471544 -0.236510 6.680371 21.516935 0.261859 -0.064348 0.279024 0.211900 -2.963600 -8.177400 1.822957 -2.192174 1.558862 16.664479 9.915768 -18.811237 -1.606767 -9.598819 29.491807 -0.185547 -2.047714 -10.451307 -0.391200 -4.016400 11.122900 -2.258176 -0.828970 -0.637848 1.789363 -1.749068 -2.104133 4.780008 -0.337633 -0.577473 -7.921561 -1.924624 -20.332400 2.487783 1.521804 26.837988 2.958200 0.285900 16.828500 -10.450591 -0.854469 -1.791377 -79.906704 0.681607 26.447311 14.869224 -27.137818 -4.282988 -0.160845 -1.721185 6.137107 15.354809 23.929684 6.792800 -7.125000 0.000000 0.000000 -15.593300 55.836600 -4.219400 9.685217 1.658562 -1.761129 74.946879 -2.313058 19.102867 -16.725251 23.919779 -4.407970 0.707382 -0.546513 20.673906 -20.210792 1.436425 -0.657200 7.125000 0.000000 0.000000 4.264000 -28.142300 1.753200 
1.480872 17.909252 13.130914 179.132764 -5.343706 -171.344617 -2.652891 1.644914 1.819504 -19.211988 -5.232426 -16.547705 -0.222824 6.717171 21.608863 0.264611 -0.058859 0.202432 0.279400 -3.399500 -9.393000 1.828517 -2.191531 1.561137 16.796791 9.943091 -18.779625 -1.592412 -9.570051 29.416917 -0.178092 -2.063507 -10.410260 -0.403000 -4.075800 11.289900 -2.045099 -0.825390 -0.673664 1.795610 -1.744179 -2.114624 4.667840 -0.336537 -0.581591 -7.978737 -1.940850 -20.234623 2.635764 1.504330 26.875550 3.038800 0.295600 16.828300 -10.460729 -0.842906 -1.792388 -79.849289 0.699711 26.499689 14.746978 -26.972656 -4.208973 -0.170570 -1.741121 6.429103 15.425171 24.597061 6.993200 -7.125000 0.000000 0.000000 -15.907100 56.520300 -4.573400 9.679907 1.668598 -1.758340 74.985283 -2.360168 19.052368 -16.745077 23.946908 -4.418135 0.700944 -0.547511 20.718433 -20.165756 1.498064 -0.680000 7.125000 0.000000 0.000000 4.300900 -28.074300 1.775400 
1.476632 17.908040 13.131823 179.160320 -5.318459 -171.343694 -2.651218 1.641760 1.819329 -19.205272 -5.143414 -16.606825 -0.219138 6.726856 21.633240 0.282227 -0.127436 0.160514 0.355700 -3.831600 -10.603400 1.829561 -2.191456 1.560024 16.809448 9.989771 -18.756083 -1.591419 -9.565912 29.409592 -0.189950 -2.019851 -10.435499 -0.421200 -4.165600 11.543000 -2.030555 -0.826316 -0.711171 1.800830 -1.745450 -2.105414 4.667478 -0.338534 -0.546734 -8.008929 -1.922807 -20.110077 2.686832 1.540017 26.892671 3.075900 0.317300 16.801100 -10.464895 -0.838866 -1.792792 -79.838795 0.728745 26.503398 14.714526 -26.927539 -4.181436 -0.157768 -1.772573 6.818241 15.009333 25.671076 7.044000 -7.125000 0.000000 0.000000 -17.021900 57.493300 -5.310500 9.677363 1.670273 -1.755547 74.977684 -2.356327 19.058000 -16.766191 23.973063 -4.427973 0.698327 -0.545447 20.687998 -20.127879 1.515158 -0.684800 7.125000 0.000000 0.000000 4.332200 -28.057200 1.790100 
1.473604 17.908242 13.134851 179.146396 -5.340766 -171.361133 -2.650061 1.639409 1.818931 -19.234846 -5.083734 -16.630474 -0.215875 6.732686 21.652236 0.297733 -0.197247 0.175742 0.362000 -3.865000 -10.697000 1.829852 -2.193400 1.561933 16.793308 9.987986 -18.733996 -1.588522 -9.562437 29.397540 -0.181073 -2.069421 -10.474925 -0.416800 -4.143900 11.481800 -2.065531 -0.837487 -0.689246 1.797194 -1.761225 -2.101808 4.682116 -0.343654 -0.554091 -7.886393 -1.858955 -19.931610 2.554998 1.595745 26.847086 3.000300 0.342700 16.719500 -10.469891 -0.850991 -1.787380 -79.790688 0.755679 26.437174 14.635171 -26.824408 -4.143301 -0.146083 -1.776967 7.075881 14.600508 25.822503 6.869900 -7.125000 0.000000 0.000000 -17.561800 57.548600 -5.509500 9.678791 1.659348 -1.755617 74.975552 -2.326883 19.088648 -16.755725 23.956861 -4.421407 0.701805 -0.540554 20.618079 -20.103481 1.445278 -0.655400 7.125000 0.000000 0.000000 4.352600 -28.137100 1.790400 
1.469970 17.909353 13.135154 179.141881 -5.386457 -171.369493 -2.649541 1.639728 1.818373 -19.247905 -5.102308 -16.617170 -0.213035 6.737159 21.668417 0.298583 -0.207537 0.218024 0.354100 -3.823200 -10.579900 1.829410 -2.194536 1.563716 16.780748 9.966160 -18.731391 -1.587252 -9.561874 29.393314 -0.168269 -2.121324 -10.464398 -0.403700 -4.079000 11.299100 -2.074010 -0.847632 -0.664005 1.796445 -1.775111 -2.101696 4.682940 -0.349147 -0.566691 -7.825706 -1.836768 -19.858989 2.478773 1.615131 26.834928 2.956800 0.350300 16.689800 -10.478497 -0.855922 -1.782714 -79.739465 0.775955 26.374199 14.455511 -26.588134 -4.062138 -0.145659 -1.761178 6.939223 14.532204 25.206747 6.695800 -7.125000 0.000000 0.000000 -17.235500 56.929100 -5.142900 9.681493 1.652403 -1.756194 74.932106 -2.340502 19.248356 -16.763739 23.966386 -4.424331 0.715778 -0.535221 20.398180 -20.198953 1.332250 -0.613100 7.125000 0.000000 0.000000 4.275000 -28.263700 1.745400 
1.464621 17.909353 13.134750 179.115160 -5.331688 -171.377157 -2.649698 1.639787 1.813767 -19.300590 -5.163876 -16.598691 -0.200077 6.762683 21.743695 0.271960 -0.086053 0.109914 0.357200 -3.839900 -10.626600 1.828521 -2.197100 1.566460 16.719844 9.982821 -18.704081 -1.580059 -9.550448 29.354862 -0.179493 -2.059199 -10.413421 -0.413800 -4.129100 11.440100 -2.098108 -0.824022 -0.636275 1.797524 -1.743811 -2.095757 4.694438 -0.332573 -0.573902 -7.805073 -1.819243 -19.878500 2.417671 1.657358 26.878071 2.933300 0.362200 16.712600 -10.484318 -0.858472 -1.779129 -79.757838 0.787002 26.263570 14.296633 -26.374295 -3.989068 -0.145451 -1.749324 6.733568 14.512090 24.724116 6.576900 -7.125000 0.000000 0.000000 -16.953700 56.450300 -4.857200 9.686194 1.646994 -1.757521 74.875814 -2.352516 19.331665 -16.768160 23.972083 -4.425690 0.725909 -0.528206 20.363847 -20.238266 1.176064 -0.550800 7.125000 0.000000 0.000000 4.245100 -28.440200 1.715400 
1.458564 17.912785 13.142119 179.234157 -4.898574 -171.183130 -2.648115 1.615345 1.793323 -19.223757 -5.162998 -16.874527 -0.189045 6.802230 21.822767 0.202221 0.242162 -0.020401 0.339400 -3.743700 -10.356800 1.825196 -2.177549 1.543877 16.750009 10.158466 -18.923661 -1.566503 -9.526636 29.278915 -0.182469 -1.948485 -10.093362 -0.400500 -4.063300 11.254900 -2.000533 -0.682848 -0.751369 1.807009 -1.558801 -2.129762 4.651754 -0.237995 -0.579126 -7.813664 -1.822794 -19.934518 2.415698 1.660553 26.893201 2.935400 0.359800 16.735900 -10.489133 -0.857118 -1.777152 -79.778700 0.753604 26.084299 14.128219 -26.140919 -3.904770 -0.150011 -1.747654 6.903241 14.446064 24.670017 6.532900 -7.125000 0.000000 0.000000 -16.988900 56.382900 -4.839700 9.689109 1.649073 -1.759896 74.860919 -2.356500 19.350914 -16.793242 24.004330 -4.438544 0.724566 -0.532240 20.457983 -20.283507 1.204875 -0.564300 7.125000 0.000000 0.000000 4.208500 -28.406000 1.703900 
1.452306 17.914803 13.150900 179.592902 -4.275329 -170.833415 -2.642042 1.574804 1.766303 -18.902930 -5.048426 -17.393116 -0.186250 6.842288 21.865513 0.104320 0.704857 -0.090198 0.343500 -3.765900 -10.419100 1.825703 -2.144390 1.501497 16.993092 10.534818 -19.274404 -1.553029 -9.495066 29.196697 -0.192402 -1.786143 -9.716766 -0.391900 -4.019900 11.132600 -1.657239 -0.446430 -1.083302 1.836963 -1.253424 -2.184557 4.505176 -0.085229 -0.512883 -7.806320 -1.833612 -19.922086 2.464528 1.629691 26.881784 2.953500 0.354400 16.729500 -10.491892 -0.850270 -1.775935 -79.753734 0.737302 25.996939 13.972747 -25.925955 -3.825266 -0.160936 -1.746757 7.374529 14.408035 24.715872 6.523900 -7.125000 0.000000 0.000000 -17.058100 56.418600 -4.875100 9.687287 1.653636 -1.761908 74.913466 -2.369391 19.252819 -16.864103 24.092095 -4.473411 0.719986 -0.535047 20.537711 -20.305666 1.261720 -0.588000 7.125000 0.000000 0.000000 4.191500 -28.342000 1.703400 
1.446855 17.913087 13.146358 179.695159 -4.247387 -170.899921 -2.641510 1.582692 1.769219 -18.809751 -5.090919 -17.332831 -0.175665 6.864124 21.925529 0.081876 0.812616 -0.190624 0.359600 -3.852600 -10.662200 1.829568 -2.151316 1.508941 17.097080 10.498070 -19.176330 -1.543781 -9.475147 29.146625 -0.192540 -1.768369 -9.665740 -0.407700 -4.099000 11.355300 -1.522168 -0.425081 -1.086229 1.848467 -1.224685 -2.148997 4.442513 -0.074622 -0.462180 -7.853803 -1.853978 -19.868843 2.482498 1.620281 26.892393 2.971000 0.347800 16.722300 -10.498314 -0.843877 -1.773745 -79.734909 0.779447 25.982903 13.832821 -25.735902 -3.755500 -0.172702 -1.743776 7.632482 14.488108 24.642953 6.546500 -7.125000 0.000000 0.000000 -16.928800 56.364300 -4.814200 9.684034 1.652502 -1.760513 74.887643 -2.411992 19.281753 -16.942770 24.190914 -4.510827 0.721090 -0.527381 20.483418 -20.284570 1.204971 -0.562700 7.125000 0.000000 0.000000 4.211500 -28.410100 1.704700 
1.443121 17.910463 13.133741 179.562815 -4.774537 -171.329656 -2.644786 1.630718 1.802468 -18.924506 -5.142255 -16.811184 -0.161894 6.862639 21.981409 0.169806 0.417502 -0.211521 0.346700 -3.783600 -10.468700 1.836332 -2.192610 1.557342 17.071626 10.137544 -18.679291 -1.540142 -9.468866 29.135765 -0.191769 -1.876896 -10.012332 -0.418400 -4.152000 11.504800 -1.610600 -0.609445 -0.768387 1.845928 -1.459980 -2.034800 4.481436 -0.198735 -0.439868 -7.907358 -1.882557 -19.896037 2.474383 1.615994 26.945249 2.977600 0.338000 16.757100 -10.509802 -0.842871 -1.768886 -79.739053 0.813424 25.920231 13.668381 -25.510043 -3.674010 -0.184058 -1.741461 7.799048 14.583579 24.564814 6.576100 -7.125000 0.000000 0.000000 -16.778800 56.308800 -4.747000 9.691629 1.651378 -1.752793 74.830193 -2.310535 19.282426 -16.882636 24.112972 -4.480335 0.729628 -0.519580 20.476132 -20.255950 1.027267 -0.489600 7.125000 0.000000 0.000000 4.236300 -28.610800 1.694700 
